<?xml version="1.0" encoding="UTF-8" standalone="no"?>
<!-- Uploaded to: SVG Repo, www.svgrepo.com, Generator: SVG Repo Mixer Tools -->

<svg
   width="800px"
   height="800px"
   viewBox="0 0 32 32"
   enable-background="new 0 0 32 32"
   id="Editable-line"
   version="1.1"
   xml:space="preserve"
   sodipodi:docname="gear-setting-settings-svgrepo-com.svg"
   inkscape:version="1.2.1 (9c6d41e410, 2022-07-14)"
   xmlns:inkscape="http://www.inkscape.org/namespaces/inkscape"
   xmlns:sodipodi="http://sodipodi.sourceforge.net/DTD/sodipodi-0.dtd"
   xmlns="http://www.w3.org/2000/svg"
   xmlns:svg="http://www.w3.org/2000/svg"><defs
     id="defs7" /><sodipodi:namedview
     id="namedview5"
     pagecolor="#ffffff"
     bordercolor="#000000"
     borderopacity="0.25"
     inkscape:showpageshadow="2"
     inkscape:pageopacity="0.0"
     inkscape:pagecheckerboard="0"
     inkscape:deskcolor="#d1d1d1"
     showgrid="false"
     inkscape:zoom="1.28375"
     inkscape:cx="400"
     inkscape:cy="400"
     inkscape:window-width="2560"
     inkscape:window-height="1351"
     inkscape:window-x="-9"
     inkscape:window-y="-9"
     inkscape:window-maximized="1"
     inkscape:current-layer="Editable-line" /><circle
     cx="16"
     cy="16"
     fill="none"
     id="XMLID_224_"
     r="5.1715674"
     stroke="#000000"
     stroke-linecap="round"
     stroke-linejoin="round"
     stroke-miterlimit="10"
     stroke-width="2.58578" /><path
     d="M 28.621558,9.9522078 27.548112,8.0930001 C 26.95557,7.0657128 25.642746,6.7146961 24.615459,7.307238 L 24.050826,7.6335654 C 21.903935,8.8723216 19.220321,7.3233397 19.220321,4.8447539 V 4.192099 c 0,-1.1861573 -0.960733,-2.146891 -2.146891,-2.146891 h -2.146891 c -1.186157,0 -2.146891,0.9607337 -2.146891,2.146891 v 0.6526549 c 0,2.4785858 -2.683614,4.0286411 -4.8305047,2.7888115 L 7.3845109,7.307238 C 6.3572235,6.7146961 5.0443996,7.0657128 4.4518577,8.0930001 L 3.3784121,9.9522078 C 2.7858702,10.979495 3.1368869,12.292319 4.1641743,12.884861 l 0.5646323,0.326327 c 2.1468911,1.23983 2.1468911,4.337794 0,5.577624 L 4.1641743,19.115139 C 3.1368869,19.707681 2.7858702,21.020505 3.3784121,22.047792 L 4.4518577,23.907 c 0.5925419,1.027287 1.9053658,1.378304 2.9326532,0.785762 l 0.5646324,-0.326327 c 2.1468907,-1.23983 4.8305047,0.310225 4.8305047,2.788811 v 0.652655 c 0,1.186157 0.960734,2.146891 2.146891,2.146891 h 2.146891 c 1.186158,0 2.146891,-0.960734 2.146891,-2.146891 v -0.652655 c 0,-2.478586 2.683614,-4.028641 4.830505,-2.788811 l 0.564633,0.326327 c 1.027287,0.592542 2.340111,0.241525 2.932653,-0.785762 l 1.073446,-1.859208 c 0.592541,-1.027287 0.241525,-2.340111 -0.785763,-2.932653 l -0.564632,-0.326327 c -2.146891,-1.23983 -2.146891,-4.337794 0,-5.577624 l 0.564632,-0.326327 c 1.027288,-0.592542 1.379378,-1.905366 0.785763,-2.9326532 z"
     fill="none"
     id="XMLID_242_"
     stroke="#000000"
     stroke-linecap="round"
     stroke-linejoin="round"
     stroke-miterlimit="10"
     stroke-width="2.14689" /><circle
     style="fill:#000000;stroke:#000000;stroke-width:1.4"
     id="path342"
     cx="15.98442"
     cy="15.859786"
     r="1.2775073" /></svg>
